<svg xmlns="http://www.w3.org/2000/svg" xmlns:xlink="http://www.w3.org/1999/xlink" width="500" zoomAndPan="magnify" viewBox="0 0 375 374.999991" height="500" preserveAspectRatio="xMidYMid meet" version="1.0"><defs><g/><clipPath id="id1"><path d="M 63.695312 65.058594 L 308.945312 65.058594 L 308.945312 186.558594 L 63.695312 186.558594 Z M 63.695312 65.058594 " clip-rule="nonzero"/></clipPath><clipPath id="id2"><path d="M 144.503906 152.417969 L 228.503906 152.417969 L 228.503906 204.917969 L 144.503906 204.917969 Z M 144.503906 152.417969 " clip-rule="nonzero"/></clipPath></defs><g fill="#258950" fill-opacity="1"><g transform="translate(103.122161, 261.383877)"><g><path d="M 35.433594 -5.628906 L 35.433594 -31.175781 C 32 -32.890625 28.429688 -33.714844 24.035156 -33.714844 C 9.75 -33.714844 2.746094 -25.203125 2.746094 -15.3125 C 2.746094 -5.355469 9.75 0.480469 19.296875 0.480469 C 22.523438 0.480469 25.269531 -0.207031 27.46875 -1.375 C 27.46875 -1.304688 27.398438 -1.304688 27.398438 -1.304688 L 38.109375 0.824219 L 38.109375 0.617188 C 36.050781 -0.753906 35.433594 -1.921875 35.433594 -5.628906 Z M 9.40625 -19.019531 C 9.40625 -27.125 13.527344 -32.410156 20.601562 -32.410156 C 24.378906 -32.410156 27.054688 -30.832031 29.117188 -28.636719 L 29.117188 -6.523438 C 29.117188 -5.425781 29.046875 -4.53125 28.976562 -3.84375 C 27.605469 -2.335938 25.957031 -1.441406 23.277344 -1.441406 C 15.382812 -1.441406 9.40625 -9.203125 9.40625 -19.019531 Z M 9.40625 -19.019531 "/></g></g></g><g fill="#258950" fill-opacity="1"><g transform="translate(143.979945, 261.383877)"><g><path d="M 11.191406 -6.660156 L 11.191406 -49.851562 L 11.535156 -52.53125 L -0.6875 -46.761719 L -0.6875 -46.351562 C 3.570312 -47.65625 4.875 -48 4.875 -45.253906 L 4.875 -4.257812 L 4.257812 0 L 15.105469 0 L 15.105469 -0.273438 C 11.671875 -1.03125 11.191406 -2.953125 11.191406 -6.660156 Z M 11.191406 -6.660156 "/></g></g></g><g fill="#258950" fill-opacity="1"><g transform="translate(160.117061, 261.383877)"><g><path d="M 19.640625 -33.714844 C 15.65625 -33.714844 7.964844 -33.03125 0.6875 -30.96875 L 0.6875 -30.695312 C 2.472656 -30.558594 4.257812 -30.078125 5.21875 -29.457031 L 5.21875 7.140625 C 5.21875 10.574219 4.53125 11.742188 2.128906 12.359375 L 2.128906 12.566406 L 15.246094 14.832031 L 15.246094 14.625 C 12.15625 13.253906 11.535156 11.949219 11.535156 8.238281 L 11.535156 -0.6875 C 13.597656 -0.0703125 16 0.480469 19.019531 0.480469 C 30.832031 0.480469 38.042969 -7.003906 38.042969 -17.304688 C 38.042969 -26.710938 32.066406 -33.714844 19.640625 -33.714844 Z M 21.5625 -0.753906 C 17.855469 -0.753906 14.421875 -2.402344 11.535156 -4.464844 L 11.535156 -31.449219 C 13.046875 -32.136719 15.519531 -32.753906 17.785156 -32.753906 C 26.023438 -32.753906 31.3125 -24.652344 31.3125 -13.871094 C 31.3125 -4.1875 26.988281 -0.753906 21.5625 -0.753906 Z M 21.5625 -0.753906 "/></g></g></g><g fill="#258950" fill-opacity="1"><g transform="translate(200.906176, 261.383877)"><g><path d="M 34.472656 -6.867188 C 32.34375 -3.914062 26.710938 -2.539062 23.074219 -2.539062 C 14.832031 -2.539062 9.476562 -9.683594 9.40625 -19.089844 L 29.046875 -19.089844 C 37.628906 -19.089844 36.050781 -33.714844 21.769531 -33.714844 C 11.8125 -33.714844 2.746094 -26.917969 2.746094 -15.863281 C 2.746094 -5.492188 10.574219 0.480469 20.121094 0.480469 C 27.191406 0.480469 32.753906 -2.746094 34.816406 -6.59375 Z M 19.296875 -32.480469 C 28.222656 -32.480469 30.488281 -20.464844 26.300781 -20.394531 L 9.40625 -20.1875 C 9.75 -27.949219 13.734375 -32.480469 19.296875 -32.480469 Z M 19.296875 -32.480469 "/></g></g></g><g fill="#258950" fill-opacity="1"><g transform="translate(237.781181, 261.383877)"><g><path d="M 15.585938 0.480469 C 24.101562 0.480469 29.320312 -3.984375 29.320312 -10.09375 C 29.320312 -13.734375 27.46875 -18.402344 17.097656 -20.050781 C 12.773438 -20.738281 8.035156 -22.109375 8.035156 -26.988281 C 8.035156 -29.597656 9.269531 -32.6875 13.800781 -32.6875 C 18.472656 -32.6875 24.582031 -29.320312 24.308594 -23.347656 L 24.445312 -23.347656 L 28.773438 -29.800781 C 26.09375 -32 21.355469 -33.714844 16.273438 -33.714844 C 8.996094 -33.714844 3.226562 -30.144531 3.226562 -24.035156 C 3.226562 -20.324219 5.355469 -15.246094 15.929688 -13.597656 C 21.289062 -12.773438 24.515625 -10.988281 24.515625 -6.453125 C 24.515625 -3.226562 22.933594 -0.550781 18.195312 -0.550781 C 12.839844 -0.550781 6.316406 -3.984375 6.386719 -9.957031 L 6.25 -9.957031 L 2.402344 -3.570312 C 5.289062 -1.304688 10.164062 0.480469 15.585938 0.480469 Z M 15.585938 0.480469 "/></g></g></g><g clip-path="url(#id1)"><path fill="#258950" d="M 241.894531 186.46875 L 241.871094 184.816406 L 308.898438 183.078125 C 308.925781 184.144531 308.945312 185.207031 308.945312 186.273438 Z M 130.746094 186.367188 L 63.695312 186.367188 C 63.695312 185.15625 63.714844 183.9375 63.746094 182.726562 L 130.769531 184.640625 C 130.753906 185.222656 130.746094 185.792969 130.746094 186.367188 Z M 238.660156 167.601562 C 238.480469 167.09375 238.289062 166.585938 238.089844 166.09375 L 300.527344 141.625 C 300.992188 142.78125 301.421875 143.957031 301.839844 145.140625 Z M 134.023438 167.496094 L 70.941406 144.726562 C 71.378906 143.523438 71.832031 142.332031 72.296875 141.148438 L 134.566406 166.042969 C 134.375 166.523438 134.195312 167.011719 134.023438 167.496094 Z M 229.128906 150.898438 C 228.824219 150.519531 228.496094 150.152344 228.183594 149.789062 L 278.535156 105.472656 C 279.398438 106.449219 280.234375 107.445312 281.0625 108.453125 Z M 143.539062 150.863281 L 91.914062 108.039062 C 92.707031 107.082031 93.515625 106.140625 94.335938 105.207031 L 144.609375 149.617188 C 144.242188 150.03125 143.890625 150.449219 143.539062 150.863281 Z M 214.84375 138.609375 L 213.21875 137.683594 L 245.742188 78.996094 C 246.761719 79.558594 247.777344 80.144531 248.777344 80.730469 Z M 158.121094 138.425781 L 124.035156 80.632812 C 125.117188 79.996094 126.207031 79.371094 127.3125 78.765625 L 159.492188 137.640625 C 159.027344 137.894531 158.574219 138.160156 158.121094 138.425781 Z M 196.859375 131.742188 C 196.28125 131.636719 195.695312 131.539062 195.117188 131.441406 L 205.835938 65.199219 C 207.019531 65.386719 208.203125 65.597656 209.375 65.820312 Z M 176.050781 131.695312 L 163.539062 65.769531 C 164.773438 65.53125 166.011719 65.320312 167.261719 65.121094 L 177.613281 131.425781 C 177.085938 131.507812 176.566406 131.597656 176.050781 131.695312 Z M 176.050781 131.695312 " fill-opacity="1" fill-rule="nonzero"/></g><g clip-path="url(#id2)"><path fill="#258950" d="M 228.503906 175.207031 C 228.503906 184.394531 224.078125 191.777344 215.230469 197.355469 C 207.296875 202.359375 197.941406 204.859375 187.15625 204.859375 C 178.984375 204.859375 170.761719 203.128906 162.492188 199.664062 C 155.335938 196.636719 149.4375 192.953125 144.792969 188.625 C 144.601562 188.433594 144.503906 188.21875 144.503906 187.976562 C 144.503906 187.304688 144.84375 186.964844 145.519531 186.964844 C 145.710938 186.964844 145.90625 187.039062 146.101562 187.183594 C 150.839844 191.511719 156.664062 195.121094 163.582031 198.003906 C 171.464844 201.277344 179.324219 202.910156 187.15625 202.910156 C 197.261719 202.910156 206.089844 200.601562 213.632812 195.984375 C 222.242188 190.742188 226.542969 183.816406 226.542969 175.207031 C 226.542969 168.953125 224.078125 163.878906 219.148438 159.984375 C 214.746094 156.472656 209.644531 154.714844 203.839844 154.714844 C 199.003906 154.714844 193.324219 157 186.792969 161.570312 C 181.183594 165.515625 177.292969 168.039062 175.117188 169.144531 C 170.328125 171.648438 165.710938 172.898438 161.261719 172.898438 C 157.875 172.898438 155.046875 172.175781 152.773438 170.734375 C 150.308594 169.097656 149.074219 166.933594 149.074219 164.238281 C 149.074219 161.257812 150.355469 158.898438 152.917969 157.167969 C 155.191406 155.628906 157.996094 154.859375 161.332031 154.859375 C 165.441406 154.859375 169.046875 156.0625 172.140625 158.46875 C 172.382812 158.660156 172.503906 158.925781 172.503906 159.261719 C 172.503906 159.933594 172.1875 160.269531 171.5625 160.269531 C 171.367188 160.269531 171.171875 160.199219 170.980469 160.054688 C 168.273438 157.890625 165.054688 156.808594 161.332031 156.808594 C 158.867188 156.808594 156.785156 157.503906 155.09375 158.898438 C 153.402344 160.296875 152.554688 162.074219 152.554688 164.238281 C 152.554688 166.308594 153.355469 167.96875 154.949219 169.21875 C 156.402344 170.371094 158.070312 170.949219 159.953125 170.949219 C 162.953125 170.949219 166.53125 169.339844 170.691406 166.113281 C 177.023438 161.210938 181.160156 158.226562 183.09375 157.167969 C 188.800781 154.042969 194.917969 152.480469 201.445312 152.480469 C 208.894531 152.480469 215.179688 154.453125 220.304688 158.394531 C 225.769531 162.675781 228.503906 168.28125 228.503906 175.207031 Z M 228.503906 175.207031 " fill-opacity="1" fill-rule="nonzero"/></g><g fill="#258950" fill-opacity="1"><g transform="translate(144.463196, 304.301707)"><g><path d="M 6.679688 0.207031 C 10.328125 0.207031 12.566406 -1.707031 12.566406 -4.324219 C 12.566406 -5.886719 11.773438 -7.886719 7.328125 -8.59375 C 5.472656 -8.886719 3.441406 -9.476562 3.441406 -11.566406 C 3.441406 -12.683594 3.972656 -14.007812 5.914062 -14.007812 C 7.917969 -14.007812 10.535156 -12.566406 10.417969 -10.007812 L 10.476562 -10.007812 L 12.332031 -12.773438 C 11.183594 -13.714844 9.152344 -14.449219 6.976562 -14.449219 C 3.855469 -14.449219 1.382812 -12.917969 1.382812 -10.300781 C 1.382812 -8.710938 2.296875 -6.535156 6.828125 -5.828125 C 9.125 -5.472656 10.507812 -4.707031 10.507812 -2.765625 C 10.507812 -1.382812 9.828125 -0.234375 7.796875 -0.234375 C 5.503906 -0.234375 2.707031 -1.707031 2.738281 -4.265625 L 2.679688 -4.265625 L 1.03125 -1.53125 C 2.265625 -0.558594 4.355469 0.207031 6.679688 0.207031 Z M 6.679688 0.207031 "/></g></g></g><g fill="#258950" fill-opacity="1"><g transform="translate(158.05953, 304.301707)"><g><path d="M 15.421875 -0.941406 L 15.421875 -12.242188 L 15.597656 -14.273438 L 11.125 -14.273438 L 11.125 -14.214844 C 12.449219 -13.625 12.714844 -13.066406 12.714844 -11.476562 L 12.714844 -3.324219 C 11.242188 -2.207031 9.769531 -1.058594 7.769531 -1.058594 C 6.386719 -1.058594 4.738281 -1.855469 4.738281 -5.210938 L 4.738281 -12.242188 L 4.914062 -14.273438 L 0.441406 -14.273438 L 0.441406 -14.214844 C 1.765625 -13.625 2.03125 -13.066406 2.03125 -11.476562 L 2.03125 -5.148438 C 2.03125 -0.707031 4.324219 0.207031 6.09375 0.207031 C 8.859375 0.207031 11.152344 -1.5 12.714844 -2.679688 L 12.714844 0.148438 L 17.070312 -0.292969 L 17.070312 -0.410156 C 16.597656 -0.472656 15.832031 -0.675781 15.421875 -0.941406 Z M 15.421875 -0.941406 "/></g></g></g><g fill="#258950" fill-opacity="1"><g transform="translate(175.569955, 304.301707)"><g><path d="M 3.265625 -17.480469 C 4.207031 -17.480469 4.945312 -18.214844 4.945312 -19.1875 C 4.945312 -20.128906 4.207031 -20.867188 3.265625 -20.867188 C 2.296875 -20.867188 1.558594 -20.128906 1.558594 -19.1875 C 1.558594 -18.214844 2.296875 -17.480469 3.265625 -17.480469 Z M 1.914062 0 L 5.945312 0 C 5.0625 -0.589844 4.796875 -1.148438 4.796875 -2.738281 L 4.796875 -12.242188 L 4.945312 -14.421875 L 0.292969 -13.980469 L 0.292969 -13.859375 C 0.914062 -13.800781 1.675781 -13.597656 2.089844 -13.332031 L 2.089844 -2.03125 Z M 1.914062 0 "/></g></g></g><g fill="#258950" fill-opacity="1"><g transform="translate(182.397545, 304.301707)"><g><path d="M 13.980469 -14.15625 L 13.980469 -14.273438 L 2.03125 -14.273438 L 1.355469 -9.886719 C 2.648438 -12.949219 4.207031 -13.832031 7.328125 -13.832031 L 9.683594 -13.832031 L 4.265625 -4.472656 C 2.679688 -1.738281 1.5 -0.382812 0.589844 0 L 13.007812 0 L 13.683594 -4.386719 C 12.390625 -1.324219 10.828125 -0.441406 7.710938 -0.441406 L 4.945312 -0.441406 L 10.890625 -10.625 C 12.390625 -13.183594 13.097656 -13.980469 13.980469 -14.15625 Z M 13.980469 -14.15625 "/></g></g></g><g fill="#258950" fill-opacity="1"><g transform="translate(196.965039, 304.301707)"><g><path d="M 8.800781 -14.449219 C 4.324219 -14.449219 1.175781 -11.449219 1.175781 -7.121094 C 1.175781 -2.765625 4.324219 0.207031 8.800781 0.207031 C 13.273438 0.207031 16.421875 -2.796875 16.421875 -7.121094 C 16.421875 -11.476562 13.273438 -14.449219 8.800781 -14.449219 Z M 9.945312 -0.292969 C 6.296875 -0.292969 3.945312 -4.972656 3.945312 -9.035156 C 3.945312 -12.09375 5.328125 -13.949219 7.652344 -13.949219 C 11.300781 -13.949219 13.65625 -9.269531 13.65625 -5.210938 C 13.65625 -2.148438 12.273438 -0.292969 9.945312 -0.292969 Z M 9.945312 -0.292969 "/></g></g></g><g fill="#258950" fill-opacity="1"><g transform="translate(214.56376, 304.301707)"><g><path d="M 6.679688 0.207031 C 10.328125 0.207031 12.566406 -1.707031 12.566406 -4.324219 C 12.566406 -5.886719 11.773438 -7.886719 7.328125 -8.59375 C 5.472656 -8.886719 3.441406 -9.476562 3.441406 -11.566406 C 3.441406 -12.683594 3.972656 -14.007812 5.914062 -14.007812 C 7.917969 -14.007812 10.535156 -12.566406 10.417969 -10.007812 L 10.476562 -10.007812 L 12.332031 -12.773438 C 11.183594 -13.714844 9.152344 -14.449219 6.976562 -14.449219 C 3.855469 -14.449219 1.382812 -12.917969 1.382812 -10.300781 C 1.382812 -8.710938 2.296875 -6.535156 6.828125 -5.828125 C 9.125 -5.472656 10.507812 -4.707031 10.507812 -2.765625 C 10.507812 -1.382812 9.828125 -0.234375 7.796875 -0.234375 C 5.503906 -0.234375 2.707031 -1.707031 2.738281 -4.265625 L 2.679688 -4.265625 L 1.03125 -1.53125 C 2.265625 -0.558594 4.355469 0.207031 6.679688 0.207031 Z M 6.679688 0.207031 "/></g></g></g></svg>