<svg xmlns="http://www.w3.org/2000/svg" xmlns:xlink="http://www.w3.org/1999/xlink" width="500" zoomAndPan="magnify" viewBox="0 0 375 374.999991" height="500" preserveAspectRatio="xMidYMid meet" version="1.0"><defs><clipPath id="id1"><path d="M 37.5 37.5 L 337.261719 37.5 L 337.261719 337.261719 L 37.5 337.261719 Z M 37.5 37.5 " clip-rule="nonzero"/></clipPath><clipPath id="id2"><path d="M 91 107.46875 L 283 107.46875 L 283 145 L 91 145 Z M 91 107.46875 " clip-rule="nonzero"/></clipPath><clipPath id="id3"><path d="M 91 230 L 283 230 L 283 267.21875 L 91 267.21875 Z M 91 230 " clip-rule="nonzero"/></clipPath></defs><g clip-path="url(#id1)"><path fill="#ffffff" d="M 187.378906 337.261719 C 147.363281 337.261719 109.683594 321.683594 81.410156 293.351562 C 53.074219 265.074219 37.5 227.394531 37.5 187.378906 C 37.5 147.363281 53.074219 109.683594 81.410156 81.410156 C 109.683594 53.074219 147.363281 37.5 187.378906 37.5 C 227.394531 37.5 265.074219 53.074219 293.351562 81.410156 C 321.683594 109.746094 337.261719 147.363281 337.261719 187.378906 C 337.261719 227.394531 321.683594 265.074219 293.351562 293.351562 C 265.074219 321.683594 227.394531 337.261719 187.378906 337.261719 Z M 187.378906 46.484375 C 149.761719 46.484375 114.355469 61.164062 87.757812 87.757812 C 61.164062 114.355469 46.484375 149.761719 46.484375 187.378906 C 46.484375 225 61.164062 260.402344 87.757812 287 C 114.355469 313.597656 149.761719 328.273438 187.378906 328.273438 C 225 328.273438 260.402344 313.597656 287 287 C 313.597656 260.402344 328.273438 225 328.273438 187.378906 C 328.273438 149.761719 313.597656 114.355469 287 87.757812 C 260.402344 61.164062 225 46.484375 187.378906 46.484375 Z M 187.378906 46.484375 " fill-opacity="1" fill-rule="nonzero"/></g><g clip-path="url(#id2)"><path fill="#ffffff" d="M 263.996094 144.386719 L 109.503906 144.386719 C 108.910156 144.375 108.316406 144.332031 107.726562 144.261719 C 107.132812 144.191406 106.546875 144.09375 105.964844 143.964844 C 105.382812 143.839844 104.808594 143.683594 104.242188 143.5 C 103.675781 143.320312 103.121094 143.109375 102.574219 142.871094 C 102.027344 142.636719 101.492188 142.375 100.972656 142.085938 C 100.453125 141.796875 99.945312 141.484375 99.457031 141.148438 C 98.964844 140.808594 98.492188 140.449219 98.035156 140.066406 C 97.582031 139.683594 97.144531 139.28125 96.726562 138.855469 C 96.3125 138.429688 95.917969 137.988281 95.542969 137.523438 C 95.167969 137.058594 94.820312 136.582031 94.492188 136.082031 C 94.167969 135.585938 93.863281 135.074219 93.585938 134.546875 C 93.308594 134.023438 93.058594 133.484375 92.835938 132.933594 C 92.609375 132.382812 92.410156 131.824219 92.242188 131.253906 C 92.070312 130.683594 91.929688 130.105469 91.8125 129.523438 C 91.699219 128.941406 91.613281 128.351562 91.554688 127.761719 C 91.496094 127.167969 91.46875 126.574219 91.46875 125.980469 C 91.46875 125.386719 91.496094 124.792969 91.554688 124.203125 C 91.613281 123.609375 91.699219 123.023438 91.8125 122.4375 C 91.929688 121.855469 92.070312 121.277344 92.242188 120.710938 C 92.410156 120.140625 92.609375 119.578125 92.835938 119.027344 C 93.058594 118.476562 93.308594 117.941406 93.585938 117.414062 C 93.863281 116.886719 94.167969 116.375 94.492188 115.878906 C 94.820312 115.382812 95.167969 114.902344 95.542969 114.4375 C 95.917969 113.976562 96.3125 113.53125 96.726562 113.105469 C 97.144531 112.679688 97.582031 112.277344 98.035156 111.894531 C 98.492188 111.511719 98.964844 111.152344 99.457031 110.816406 C 99.945312 110.476562 100.453125 110.164062 100.972656 109.875 C 101.492188 109.589844 102.027344 109.328125 102.574219 109.089844 C 103.121094 108.851562 103.675781 108.644531 104.242188 108.460938 C 104.808594 108.277344 105.382812 108.121094 105.964844 107.996094 C 106.546875 107.867188 107.132812 107.769531 107.726562 107.699219 C 108.316406 107.628906 108.910156 107.585938 109.503906 107.574219 L 263.996094 107.574219 C 264.59375 107.585938 265.1875 107.628906 265.777344 107.699219 C 266.367188 107.769531 266.953125 107.867188 267.535156 107.996094 C 268.117188 108.121094 268.691406 108.277344 269.257812 108.460938 C 269.824219 108.644531 270.382812 108.851562 270.929688 109.089844 C 271.476562 109.328125 272.007812 109.589844 272.53125 109.875 C 273.050781 110.164062 273.554688 110.476562 274.046875 110.816406 C 274.539062 111.152344 275.011719 111.511719 275.464844 111.894531 C 275.921875 112.277344 276.359375 112.679688 276.773438 113.105469 C 277.191406 113.53125 277.585938 113.976562 277.960938 114.4375 C 278.332031 114.902344 278.683594 115.382812 279.007812 115.878906 C 279.335938 116.375 279.636719 116.886719 279.914062 117.414062 C 280.191406 117.941406 280.441406 118.476562 280.667969 119.027344 C 280.894531 119.578125 281.089844 120.140625 281.261719 120.710938 C 281.429688 121.277344 281.574219 121.855469 281.6875 122.4375 C 281.804688 123.023438 281.890625 123.609375 281.945312 124.203125 C 282.003906 124.792969 282.03125 125.386719 282.03125 125.980469 C 282.03125 126.574219 282.003906 127.167969 281.945312 127.761719 C 281.890625 128.351562 281.804688 128.941406 281.6875 129.523438 C 281.574219 130.105469 281.429688 130.683594 281.261719 131.253906 C 281.089844 131.824219 280.894531 132.382812 280.667969 132.933594 C 280.441406 133.484375 280.191406 134.023438 279.914062 134.546875 C 279.636719 135.074219 279.335938 135.585938 279.007812 136.082031 C 278.683594 136.582031 278.332031 137.058594 277.960938 137.523438 C 277.585938 137.988281 277.191406 138.429688 276.773438 138.855469 C 276.359375 139.28125 275.921875 139.683594 275.464844 140.066406 C 275.011719 140.449219 274.539062 140.808594 274.046875 141.148438 C 273.554688 141.484375 273.050781 141.796875 272.53125 142.085938 C 272.007812 142.375 271.476562 142.636719 270.929688 142.871094 C 270.382812 143.109375 269.824219 143.320312 269.257812 143.5 C 268.691406 143.683594 268.117188 143.839844 267.535156 143.964844 C 266.953125 144.09375 266.367188 144.191406 265.777344 144.261719 C 265.1875 144.332031 264.59375 144.375 263.996094 144.386719 Z M 263.996094 144.386719 " fill-opacity="1" fill-rule="nonzero"/></g><path fill="#ffffff" d="M 263.996094 205.636719 L 109.503906 205.636719 C 108.921875 205.613281 108.339844 205.558594 107.761719 205.476562 C 107.183594 205.394531 106.613281 205.289062 106.042969 205.152344 C 105.476562 205.015625 104.917969 204.855469 104.363281 204.664062 C 103.8125 204.476562 103.269531 204.261719 102.738281 204.019531 C 102.207031 203.777344 101.6875 203.511719 101.179688 203.222656 C 100.675781 202.933594 100.183594 202.621094 99.707031 202.28125 C 99.230469 201.945312 98.769531 201.585938 98.328125 201.207031 C 97.886719 200.824219 97.464844 200.421875 97.0625 200.003906 C 96.65625 199.582031 96.273438 199.140625 95.914062 198.683594 C 95.550781 198.226562 95.210938 197.753906 94.894531 197.261719 C 94.578125 196.773438 94.289062 196.269531 94.019531 195.75 C 93.75 195.234375 93.507812 194.703125 93.292969 194.164062 C 93.074219 193.621094 92.882812 193.070312 92.71875 192.511719 C 92.550781 191.953125 92.414062 191.386719 92.304688 190.816406 C 92.195312 190.242188 92.109375 189.667969 92.054688 189.085938 C 92 188.507812 91.972656 187.925781 91.972656 187.34375 C 91.972656 186.757812 92 186.175781 92.054688 185.597656 C 92.109375 185.015625 92.195312 184.441406 92.304688 183.867188 C 92.414062 183.296875 92.550781 182.730469 92.71875 182.171875 C 92.882812 181.613281 93.074219 181.0625 93.289062 180.519531 C 93.507812 179.980469 93.75 179.449219 94.019531 178.933594 C 94.289062 178.414062 94.578125 177.910156 94.894531 177.421875 C 95.210938 176.929688 95.550781 176.457031 95.914062 176 C 96.273438 175.542969 96.65625 175.101562 97.0625 174.679688 C 97.464844 174.261719 97.886719 173.859375 98.328125 173.476562 C 98.769531 173.097656 99.230469 172.738281 99.707031 172.402344 C 100.183594 172.0625 100.675781 171.75 101.179688 171.460938 C 101.6875 171.171875 102.207031 170.90625 102.738281 170.664062 C 103.269531 170.421875 103.8125 170.207031 104.363281 170.019531 C 104.917969 169.828125 105.476562 169.667969 106.042969 169.53125 C 106.613281 169.394531 107.183594 169.289062 107.761719 169.207031 C 108.339844 169.125 108.921875 169.070312 109.503906 169.046875 L 263.996094 169.046875 C 264.613281 169.019531 265.230469 169.023438 265.847656 169.058594 C 266.464844 169.09375 267.078125 169.160156 267.6875 169.257812 C 268.296875 169.351562 268.902344 169.480469 269.5 169.636719 C 270.09375 169.796875 270.683594 169.984375 271.261719 170.199219 C 271.839844 170.417969 272.40625 170.664062 272.957031 170.9375 C 273.511719 171.210938 274.050781 171.511719 274.574219 171.839844 C 275.097656 172.167969 275.601562 172.523438 276.089844 172.902344 C 276.574219 173.28125 277.042969 173.683594 277.488281 174.109375 C 277.933594 174.535156 278.359375 174.984375 278.757812 175.453125 C 279.160156 175.921875 279.535156 176.410156 279.886719 176.917969 C 280.238281 177.425781 280.566406 177.949219 280.863281 178.488281 C 281.164062 179.027344 281.433594 179.582031 281.675781 180.148438 C 281.917969 180.714844 282.132812 181.292969 282.316406 181.882812 C 282.5 182.46875 282.652344 183.066406 282.777344 183.671875 C 282.902344 184.273438 282.996094 184.882812 283.058594 185.496094 C 283.121094 186.109375 283.152344 186.726562 283.152344 187.34375 C 283.152344 187.957031 283.121094 188.574219 283.058594 189.1875 C 282.996094 189.800781 282.902344 190.410156 282.777344 191.015625 C 282.652344 191.617188 282.5 192.214844 282.316406 192.804688 C 282.132812 193.390625 281.917969 193.96875 281.675781 194.535156 C 281.433594 195.101562 281.164062 195.65625 280.863281 196.195312 C 280.566406 196.738281 280.238281 197.261719 279.886719 197.765625 C 279.535156 198.273438 279.160156 198.761719 278.757812 199.230469 C 278.359375 199.699219 277.933594 200.148438 277.488281 200.574219 C 277.042969 201 276.574219 201.402344 276.089844 201.78125 C 275.601562 202.160156 275.097656 202.515625 274.574219 202.84375 C 274.050781 203.171875 273.511719 203.472656 272.957031 203.746094 C 272.40625 204.019531 271.839844 204.265625 271.261719 204.484375 C 270.683594 204.699219 270.09375 204.886719 269.5 205.046875 C 268.902344 205.203125 268.296875 205.332031 267.6875 205.429688 C 267.078125 205.523438 266.464844 205.589844 265.847656 205.625 C 265.230469 205.660156 264.613281 205.664062 263.996094 205.636719 Z M 263.996094 205.636719 " fill-opacity="1" fill-rule="nonzero"/><g clip-path="url(#id3)"><path fill="#ffffff" d="M 263.996094 267.144531 L 109.503906 267.144531 C 108.910156 267.132812 108.316406 267.089844 107.726562 267.019531 C 107.132812 266.949219 106.546875 266.851562 105.964844 266.722656 C 105.382812 266.597656 104.808594 266.441406 104.242188 266.257812 C 103.675781 266.074219 103.121094 265.867188 102.574219 265.628906 C 102.027344 265.394531 101.492188 265.132812 100.972656 264.84375 C 100.453125 264.554688 99.945312 264.242188 99.457031 263.90625 C 98.964844 263.566406 98.492188 263.207031 98.035156 262.824219 C 97.582031 262.441406 97.144531 262.039062 96.726562 261.613281 C 96.3125 261.1875 95.917969 260.746094 95.542969 260.28125 C 95.167969 259.816406 94.820312 259.335938 94.492188 258.839844 C 94.167969 258.34375 93.863281 257.832031 93.585938 257.304688 C 93.308594 256.78125 93.058594 256.242188 92.835938 255.691406 C 92.609375 255.140625 92.410156 254.578125 92.242188 254.011719 C 92.070312 253.441406 91.929688 252.863281 91.8125 252.28125 C 91.699219 251.699219 91.613281 251.109375 91.554688 250.519531 C 91.496094 249.925781 91.46875 249.332031 91.46875 248.738281 C 91.46875 248.144531 91.496094 247.550781 91.554688 246.960938 C 91.613281 246.367188 91.699219 245.78125 91.8125 245.195312 C 91.929688 244.613281 92.070312 244.035156 92.242188 243.464844 C 92.410156 242.898438 92.609375 242.335938 92.835938 241.785156 C 93.058594 241.234375 93.308594 240.699219 93.585938 240.171875 C 93.863281 239.644531 94.167969 239.132812 94.492188 238.636719 C 94.820312 238.140625 95.167969 237.660156 95.542969 237.195312 C 95.917969 236.734375 96.3125 236.289062 96.726562 235.863281 C 97.144531 235.4375 97.582031 235.035156 98.035156 234.652344 C 98.492188 234.269531 98.964844 233.910156 99.457031 233.570312 C 99.945312 233.234375 100.453125 232.921875 100.972656 232.632812 C 101.492188 232.347656 102.027344 232.082031 102.574219 231.847656 C 103.121094 231.609375 103.675781 231.402344 104.242188 231.21875 C 104.808594 231.035156 105.382812 230.878906 105.964844 230.753906 C 106.546875 230.625 107.132812 230.527344 107.726562 230.457031 C 108.316406 230.386719 108.910156 230.34375 109.503906 230.332031 L 263.996094 230.332031 C 264.59375 230.34375 265.1875 230.386719 265.777344 230.457031 C 266.367188 230.527344 266.953125 230.625 267.535156 230.753906 C 268.117188 230.878906 268.691406 231.035156 269.257812 231.21875 C 269.824219 231.402344 270.382812 231.609375 270.929688 231.847656 C 271.476562 232.082031 272.007812 232.347656 272.53125 232.632812 C 273.050781 232.921875 273.554688 233.234375 274.046875 233.570312 C 274.539062 233.910156 275.011719 234.269531 275.464844 234.652344 C 275.921875 235.035156 276.359375 235.4375 276.773438 235.863281 C 277.191406 236.289062 277.585938 236.734375 277.960938 237.195312 C 278.332031 237.660156 278.683594 238.140625 279.007812 238.636719 C 279.335938 239.132812 279.636719 239.644531 279.914062 240.171875 C 280.191406 240.699219 280.441406 241.234375 280.667969 241.785156 C 280.894531 242.335938 281.089844 242.898438 281.261719 243.464844 C 281.429688 244.035156 281.574219 244.613281 281.6875 245.195312 C 281.804688 245.78125 281.890625 246.367188 281.945312 246.960938 C 282.003906 247.550781 282.035156 248.144531 282.035156 248.738281 C 282.035156 249.332031 282.003906 249.925781 281.945312 250.519531 C 281.890625 251.109375 281.804688 251.699219 281.6875 252.28125 C 281.574219 252.863281 281.429688 253.441406 281.261719 254.011719 C 281.089844 254.578125 280.894531 255.140625 280.667969 255.691406 C 280.441406 256.242188 280.191406 256.78125 279.914062 257.304688 C 279.636719 257.832031 279.335938 258.34375 279.007812 258.839844 C 278.683594 259.335938 278.332031 259.816406 277.960938 260.28125 C 277.585938 260.746094 277.191406 261.1875 276.773438 261.613281 C 276.359375 262.039062 275.921875 262.441406 275.464844 262.824219 C 275.011719 263.207031 274.539062 263.566406 274.046875 263.90625 C 273.554688 264.242188 273.050781 264.554688 272.53125 264.84375 C 272.007812 265.132812 271.476562 265.394531 270.929688 265.628906 C 270.382812 265.867188 269.824219 266.074219 269.257812 266.257812 C 268.691406 266.441406 268.117188 266.597656 267.535156 266.722656 C 266.953125 266.851562 266.367188 266.949219 265.777344 267.019531 C 265.1875 267.089844 264.59375 267.132812 263.996094 267.144531 Z M 263.996094 267.144531 " fill-opacity="1" fill-rule="nonzero"/></g></svg>